<svg xmlns="http://www.w3.org/2000/svg" version="1.1" xmlns:xlink="http://www.w3.org/1999/xlink" width="200" height="200"><svg xmlns="http://www.w3.org/2000/svg" version="1.1" xmlns:xlink="http://www.w3.org/1999/xlink" viewBox="0 0 200 200"><rect width="200" height="200" fill="url('#gradient')"></rect><defs><linearGradient id="SvgjsLinearGradient1001" gradientTransform="rotate(45 0.5 0.5)"><stop offset="0%" stop-color="#12afb6"></stop><stop offset="100%" stop-color="#6eecb9"></stop></linearGradient></defs><g><g fill="#13206a" transform="matrix(2.0409699922489204,0,0,2.0409699922489204,7.8084885464093645,115.10552129554347)" stroke="#0a42b2" stroke-width="0.2"><path d="M5.75 0L1.07 0L1.07-14.22L5.65-14.22Q7.54-14.22 9.04-13.36Q10.55-12.51 11.39-10.95Q12.24-9.39 12.25-7.46L12.25-7.46L12.25-6.81Q12.25-4.85 11.42-3.31Q10.60-1.76 9.10-0.88Q7.60-0.01 5.75 0L5.75 0ZM5.65-11.57L4.50-11.57L4.50-2.64L5.69-2.64Q7.17-2.64 7.96-3.69Q8.75-4.74 8.75-6.81L8.75-6.81L8.75-7.42Q8.75-9.48 7.96-10.53Q7.17-11.57 5.65-11.57L5.65-11.57ZM23.10 0L19.80 0Q19.63-0.32 19.49-0.95L19.49-0.95Q18.58 0.20 16.95 0.20L16.95 0.20Q15.46 0.20 14.41-0.71Q13.37-1.61 13.37-2.98L13.37-2.98Q13.37-4.70 14.64-5.58Q15.91-6.46 18.33-6.46L18.33-6.46L19.35-6.46L19.35-7.01Q19.35-8.47 18.09-8.47L18.09-8.47Q16.91-8.47 16.91-7.31L16.91-7.31L13.62-7.31Q13.62-8.85 14.93-9.80Q16.23-10.76 18.25-10.76Q20.27-10.76 21.45-9.78Q22.62-8.79 22.65-7.07L22.65-7.07L22.65-2.39Q22.67-0.94 23.10-0.17L23.10-0.17L23.10 0ZM17.74-2.15L17.74-2.15Q18.36-2.15 18.76-2.41Q19.17-2.68 19.35-3.01L19.35-3.01L19.35-4.70L18.39-4.70Q16.67-4.70 16.67-3.15L16.67-3.15Q16.67-2.71 16.97-2.43Q17.28-2.15 17.74-2.15ZM30-2.97L30-2.97Q30-3.39 29.56-3.64Q29.12-3.90 27.89-4.17Q26.66-4.44 25.86-4.89Q25.06-5.33 24.64-5.97Q24.22-6.60 24.22-7.42L24.22-7.42Q24.22-8.88 25.42-9.82Q26.62-10.76 28.56-10.76L28.56-10.76Q30.65-10.76 31.92-9.81Q33.19-8.87 33.19-7.32L33.19-7.32L29.89-7.32Q29.89-8.59 28.55-8.59L28.55-8.59Q28.04-8.59 27.69-8.31Q27.33-8.02 27.33-7.59L27.33-7.59Q27.33-7.15 27.76-6.88Q28.19-6.60 29.14-6.43Q30.08-6.25 30.79-6.01L30.79-6.01Q33.17-5.19 33.17-3.07L33.17-3.07Q33.17-1.62 31.89-0.71Q30.61 0.20 28.56 0.20L28.56 0.20Q27.21 0.20 26.14-0.29Q25.08-0.78 24.48-1.62Q23.89-2.46 23.89-3.39L23.89-3.39L26.96-3.39Q26.98-2.66 27.45-2.32Q27.92-1.98 28.65-1.98L28.65-1.98Q29.33-1.98 29.66-2.26Q30-2.53 30-2.97ZM37.93-15L37.93-9.43Q38.98-10.76 40.63-10.76L40.63-10.76Q42.37-10.76 43.26-9.73Q44.15-8.69 44.17-6.67L44.17-6.67L44.17 0L40.87 0L40.87-6.59Q40.87-7.43 40.53-7.83Q40.19-8.22 39.37-8.22L39.37-8.22Q38.35-8.22 37.93-7.58L37.93-7.58L37.93 0L34.64 0L34.64-15L37.93-15ZM51.77-4.82L49.58-4.82L49.58 0L46.15 0L46.15-14.22L51.83-14.22Q53.46-14.22 54.71-13.62Q55.97-13.02 56.66-11.91Q57.34-10.80 57.34-9.39L57.34-9.39Q57.34-7.31 55.85-6.07Q54.37-4.82 51.77-4.82L51.77-4.82ZM49.58-11.57L49.58-7.47L51.83-7.47Q52.82-7.47 53.34-7.97Q53.87-8.47 53.87-9.38L53.87-9.38Q53.87-10.37 53.33-10.97Q52.79-11.56 51.87-11.57L51.87-11.57L49.58-11.57ZM64.00 0.20L64.00 0.20Q61.57 0.20 60.07-1.25Q58.56-2.71 58.56-5.03L58.56-5.03L58.56-5.30Q58.56-6.92 59.17-8.16Q59.77-9.40 60.92-10.08Q62.07-10.76 63.65-10.76L63.65-10.76Q65.88-10.76 67.17-9.38Q68.46-8.00 68.46-5.53L68.46-5.53L68.46-4.25L61.91-4.25Q62.09-3.36 62.69-2.85Q63.28-2.34 64.23-2.34L64.23-2.34Q65.79-2.34 66.67-3.44L66.67-3.44L68.17-1.66Q67.56-0.81 66.43-0.31Q65.30 0.20 64.00 0.20ZM63.63-8.22L63.63-8.22Q62.19-8.22 61.91-6.31L61.91-6.31L65.23-6.31L65.23-6.56Q65.25-7.35 64.83-7.79Q64.41-8.22 63.63-8.22ZM75.31-2.97L75.31-2.97Q75.31-3.39 74.87-3.64Q74.43-3.90 73.20-4.17Q71.97-4.44 71.17-4.89Q70.37-5.33 69.95-5.97Q69.53-6.60 69.53-7.42L69.53-7.42Q69.53-8.88 70.73-9.82Q71.93-10.76 73.88-10.76L73.88-10.76Q75.97-10.76 77.24-9.81Q78.51-8.87 78.51-7.32L78.51-7.32L75.21-7.32Q75.21-8.59 73.87-8.59L73.87-8.59Q73.35-8.59 73.00-8.31Q72.65-8.02 72.65-7.59L72.65-7.59Q72.65-7.15 73.08-6.88Q73.51-6.60 74.45-6.43Q75.39-6.25 76.10-6.01L76.10-6.01Q78.49-5.19 78.49-3.07L78.49-3.07Q78.49-1.62 77.20-0.71Q75.92 0.20 73.88 0.20L73.88 0.20Q72.52 0.20 71.46-0.29Q70.39-0.78 69.79-1.62Q69.20-2.46 69.20-3.39L69.20-3.39L72.28-3.39Q72.29-2.66 72.76-2.32Q73.23-1.98 73.96-1.98L73.96-1.98Q74.64-1.98 74.98-2.26Q75.31-2.53 75.31-2.97ZM89.27 0L85.98 0Q85.80-0.32 85.66-0.95L85.66-0.95Q84.76 0.20 83.13 0.20L83.13 0.20Q81.63 0.20 80.59-0.71Q79.54-1.61 79.54-2.98L79.54-2.98Q79.54-4.70 80.81-5.58Q82.08-6.46 84.50-6.46L84.50-6.46L85.52-6.46L85.52-7.01Q85.52-8.47 84.26-8.47L84.26-8.47Q83.09-8.47 83.09-7.31L83.09-7.31L79.79-7.31Q79.79-8.85 81.10-9.80Q82.40-10.76 84.42-10.76Q86.45-10.76 87.62-9.78Q88.79-8.79 88.82-7.07L88.82-7.07L88.82-2.39Q88.84-0.94 89.27-0.17L89.27-0.17L89.27 0ZM83.92-2.15L83.92-2.15Q84.53-2.15 84.94-2.41Q85.34-2.68 85.52-3.01L85.52-3.01L85.52-4.70L84.56-4.70Q82.84-4.70 82.84-3.15L82.84-3.15Q82.84-2.71 83.14-2.43Q83.45-2.15 83.92-2.15Z"></path></g></g></svg><style>@media (prefers-color-scheme: light) { :root { filter: none; } }
@media (prefers-color-scheme: dark) { :root { filter: none; } }
</style></svg>